:SAMPLES-PER-SECOND 30
:FULLY-SPECIFIED
:DEGREES
47
root  65.8101 38.6111 -0.0240914 -161.419 -85.443 157.111
RightUpLeg  -22.4426 -5.03833 -3.02658
RightLeg  4.52338 -0.475918 2.30578
RightFoot  7.62761 -1.34669 8.35446
RightToes  1.74622e-010 0 -3.6325e-017
Spine  8.15576 -0.755274 -2.10471
Spine1  11.0113 -0.697834 -0.789018
HEad  1.97911 5.47025 -6.11963
LeftShoulder1  9.45517 -12.8581 -50.443
LeftArm  -3.40389 9.60975 -24.5754
LeftForeArm  24.764 -12.3389 -6.54012
LeftHand  -0.244104 0.0205437 5.32207
RightShoulder  7.06857 10.6493 43.5551
RightArm  0.0409552 -15.037 34.8924
RightForeArm  -4.661 13.5498 7.90326
RightHand  -0.408619 -1.17061 -11.1744
LeftUpLeg  12.0501 8.10499 -0.718457
LeftLeg  14.3968 8.54951 -1.18082
LeftFoot  -23.606 -0.0159643 -1.46512
LeftToes  1.00041e-010 1.90862e-010 2.54823e-011
48
root  64.6829 38.3572 -0.0813783 -146.498 -86.7869 142.094
RightUpLeg  -22.446 -6.23887 -2.71732
RightLeg  7.65293 -0.372957 1.50213
RightFoot  8.35437 -1.26759 7.6506
RightToes  1.74622e-010 0 -3.6325e-017
Spine  8.25978 -1.04766 -1.81914
Spine1  11.1233 -1.13515 -0.451796
HEad  1.21859 4.44521 -5.67249
LeftShoulder1  9.60949 -13.0263 -50.7421
LeftArm  -2.72258 9.73711 -25.9408
LeftForeArm  25.0234 -12.8227 -6.49237
LeftHand  -0.244104 0.0205437 5.32207
RightShoulder  7.05808 10.6071 43.624
RightArm  -0.0612861 -14.6735 33.6255
RightForeArm  3.61195 11.1031 8.22169
RightHand  -0.455604 -0.51896 -10.8537
LeftUpLeg  13.9935 8.49712 -0.0298809
LeftLeg  14.4338 6.43362 -1.45783
LeftFoot  -24.6025 -0.0402282 -1.61504
LeftToes  1.00041e-010 1.90862e-010 2.54823e-011
49
root  63.4532 38.2039 -0.148834 -140.472 -88.8744 136.615
RightUpLeg  -22.8824 -8.43847 -1.48652
RightLeg  11.2574 -0.336069 0.980374
RightFoot  9.86998 -0.656273 3.88027
RightToes  1.74622e-010 0 -3.6325e-017
Spine  7.38477 -1.53322 -0.469528
Spine1  11.4923 -1.78588 0.123271
HEad  0.599994 3.27256 -5.30848
LeftShoulder1  9.70771 -13.1139 -50.987
LeftArm  -2.03261 10.3717 -27.3022
LeftForeArm  25.1419 -13.7635 -6.24527
LeftHand  -0.244104 0.0205437 5.32207
RightShoulder  6.99073 10.4919 43.5601
RightArm  -0.485704 -14.6918 32.3447
RightForeArm  7.93088 8.75535 8.49951
RightHand  -0.458247 -0.360043 -10.5864
LeftUpLeg  15.3662 8.80575 1.3958
LeftLeg  14.3418 3.70955 -1.30593
LeftFoot  -24.6752 -0.116386 -2.26427
LeftToes  1.00041e-010 1.90862e-010 2.54823e-011
50
root  62.1488 38.1373 -0.220408 0.803191 -88.7838 -3.93859
RightUpLeg  -23.8545 -10.0756 0.918646
RightLeg  15.5346 0.146929 0.274208
RightFoot  9.74365 0.239933 -0.97924
RightToes  1.74622e-010 0 -3.6325e-017
Spine  6.34785 -1.79697 2.78961
Spine1  11.7368 -1.89227 -0.0806312
HEad  -0.237393 2.03605 -5.15178
LeftShoulder1  9.76373 -13.1392 -51.1997
LeftArm  -1.60917 11.2212 -28.5968
LeftForeArm  25.1433 -14.8554 -5.86819
LeftHand  -0.244104 0.0205437 5.32207
RightShoulder  6.92165 10.3496 43.5737
RightArm  -2.26913 -15.0007 31.116
RightForeArm  8.53184 6.64981 8.31762
RightHand  -0.438067 -0.534876 -10.4726
LeftUpLeg  16.207 9.11366 3.63378
LeftLeg  15.0633 1.41251 -0.598044
LeftFoot  -24.1286 -0.277673 -3.75672
LeftToes  1.00041e-010 1.90862e-010 2.54823e-011
51
root  60.791 38.0992 -0.31458 57.8623 -87.523 -60.7886
RightUpLeg  -24.3064 -8.99301 2.85085
RightLeg  20.1847 -0.817488 -0.601307
RightFoot  6.75675 0.600717 -3.44699
RightToes  1.74622e-010 0 -3.6325e-017
Spine  6.03045 -1.67359 7.03468
Spine1  11.7892 -1.24453 -1.25995
HEad  -1.29617 1.16638 -5.03893
LeftShoulder1  9.75115 -13.1208 -51.1903
LeftArm  -1.57267 12.2451 -29.7363
LeftForeArm  24.6278 -15.992 -5.42413
LeftHand  -0.244104 0.0205437 5.32207
RightShoulder  6.94637 10.3005 43.9009
RightArm  -4.28658 -14.6957 29.8612
RightForeArm  8.27559 4.44724 7.66659
RightHand  -0.48174 -0.454216 -11.3189
LeftUpLeg  16.7499 8.98795 5.96617
LeftLeg  17.5667 0.150747 0.137152
LeftFoot  -23.2208 -0.60016 -7.11639
LeftToes  1.00041e-010 1.90862e-010 2.54823e-011
52
root  59.4254 38.1099 -0.469026 65.2054 -86.5282 -68.3168
RightUpLeg  -23.5368 -7.13712 3.63511
RightLeg  23.8285 -2.57447 -1.4585
RightFoot  2.66126 0.418294 -3.2277
RightToes  1.74622e-010 0 -3.6325e-017
Spine  6.16699 -1.5676 10.1576
Spine1  11.8185 -0.638408 -2.15299
HEad  -1.94202 0.933554 -4.794
LeftShoulder1  9.6758 -13.1007 -50.8618
LeftArm  -1.63143 13.4994 -30.4974
LeftForeArm  23.5958 -17.0651 -5.02564
LeftHand  -0.244104 0.0205437 5.32207
RightShoulder  7.04219 10.3604 44.3353
RightArm  -5.69829 -13.3569 28.8176
RightForeArm  8.25304 2.02079 7.07248
RightHand  -0.545444 -0.419727 -12.7586
LeftUpLeg  15.896 7.34498 7.34991
LeftLeg  23.0114 0.395336 0.559157
LeftFoot  -20.1373 -0.758485 -11.6442
LeftToes  1.00041e-010 1.90862e-010 2.54823e-011
53
root  58.1015 38.2025 -0.684707 54.4229 -85.6092 -57.4946
RightUpLeg  -22.0747 -7.22247 4.00931
RightLeg  25.7514 -3.47612 -2.04995
RightFoot  -0.690011 0.239429 -2.6366
RightToes  1.74622e-010 0 -3.6325e-017
Spine  6.00648 -1.80317 11.511
Spine1  11.6442 -0.70405 -1.923
HEad  -1.59602 0.910178 -4.44558
LeftShoulder1  9.61432 -13.1337 -50.4442
LeftArm  -1.38526 14.696 -30.6554
LeftForeArm  22.9848 -17.805 -4.78789
LeftHand  -0.244104 0.0205437 5.32207
RightShoulder  7.06392 10.3879 44.386
RightArm  -6.419 -11.7267 28.3933
RightForeArm  7.52475 0.555273 6.80962
RightHand  -0.528968 -0.904676 -13.6476
LeftUpLeg  11.9362 4.75305 7.85453
LeftLeg  32.1761 1.45113 1.36423
LeftFoot  -12.2086 -0.0570246 -13.7343
LeftToes  1.00041e-010 1.90862e-010 2.54823e-011
54
root  56.8569 38.3201 -0.89807 41.9127 -84.0847 -44.6533
RightUpLeg  -20.5644 -8.68344 4.56928
RightLeg  26.6497 -3.76367 -2.287
RightFoot  -3.28594 0.169703 -2.72954
RightToes  1.74622e-010 0 -3.6325e-017
Spine  5.70894 -2.17277 12.6121
Spine1  11.0997 -1.01265 -1.31921
HEad  -0.611414 0.456087 -3.99822
LeftShoulder1  9.59259 -13.1884 -50.1683
LeftArm  -0.902327 15.2906 -30.3032
LeftForeArm  23.4119 -18.2075 -4.65631
LeftHand  -0.244104 0.0205437 5.32207
RightShoulder  6.97856 10.3402 43.9821
RightArm  -6.67679 -10.4948 28.4307
RightForeArm  6.22292 1.27752 6.88361
RightHand  -0.493952 -1.26532 -13.8155
LeftUpLeg  5.31662 1.9597 8.15865
LeftLeg  43.2274 2.51452 2.92093
LeftFoot  -0.780348 0.992915 -10.9953
LeftToes  1.00041e-010 1.90862e-010 2.54823e-011
